<svg width="95" height="95" viewBox="0 0 95 95" fill="none" xmlns="http://www.w3.org/2000/svg">
<path d="M56.6766 43.5749C56.5005 43.5749 56.325 43.5861 56.1504 43.6079C55.3118 42.5786 53.976 41.9901 52.5895 42.0822C51.9111 41.0769 50.7898 40.3916 49.5221 40.2626V30.8791C49.5221 28.5463 47.7036 26.7188 45.3814 26.7188C43.0925 26.7188 41.2994 28.5463 41.2994 30.8791V42.563C40.4166 41.8187 39.3642 41.3099 38.1813 41.3099C37.1848 41.3099 36.2178 41.6654 35.4583 42.3108C32.7816 44.5867 34.785 48.3386 36.1106 50.821C36.4715 51.4965 36.8122 52.1343 36.984 52.6018C37.3667 53.6419 37.7624 54.7161 38.1864 55.6851C39.1294 58.3661 40.1897 60.0396 41.0507 61.3993C42.1336 63.1048 42.7301 64.0434 42.7301 66.2417C42.7301 67.3666 43.647 68.2812 44.7733 68.2812H55.7213C56.8498 68.2812 57.7674 67.3666 57.7674 66.2417C57.7674 65.688 58.3154 64.6015 58.8089 63.6237C59.7193 61.8052 60.8528 59.5424 60.8528 56.8585L60.8594 47.637C60.8594 45.397 58.9829 43.5749 56.6766 43.5749ZM57.8841 56.8585C57.8841 58.8401 57.0049 60.5963 56.1489 62.3053C55.6234 63.3461 55.1205 64.3434 54.9066 65.3125H45.6663C45.4858 62.8446 44.5834 61.424 43.5498 59.7969C42.7729 58.5697 41.8052 57.0426 40.9696 54.6508L40.9269 54.5414C40.5311 53.6433 40.1441 52.5924 39.7578 51.5429C39.528 50.9174 39.1402 50.1912 38.7292 49.4229C37.9059 47.8801 36.5273 45.2988 37.3811 44.573C37.6044 44.383 37.8885 44.2787 38.1813 44.2787C39.2874 44.2787 40.7108 46.062 41.1972 47.596C41.5574 48.7336 42.3199 48.9032 42.7424 48.9032L43.3904 48.8974L43.8282 48.4379C44.2544 47.9918 44.2862 47.4449 44.2681 47.0869V30.8791C44.2681 30.1999 44.7465 29.6875 45.3814 29.6875C46.0497 29.6875 46.5534 30.1999 46.5534 30.8791V44.1058L48.5821 43.306C49.2967 43.0237 50.1448 43.4353 50.281 44.1018L50.6528 45.9225L52.3467 45.1568C52.9692 44.8752 53.7629 45.1676 54.0122 45.7536L54.5442 47.4525L56.1214 46.6719C56.2903 46.5879 56.4823 46.5436 56.6766 46.5436C57.3463 46.5436 57.8906 47.034 57.8906 47.637L57.8841 56.8585Z" fill="#B96FE7"/>
<path d="M47.5 14.8438C51.5987 14.8438 54.9219 11.5209 54.9219 7.4215C54.9219 3.32314 51.5987 0 47.5 0C43.4006 0 40.0781 3.32314 40.0781 7.4215C40.0781 11.5209 43.4006 14.8438 47.5 14.8438ZM47.5 2.96875C49.9556 2.96875 51.9531 4.96627 51.9531 7.4215C51.9531 9.87711 49.9556 11.875 47.5 11.875C45.0444 11.875 43.0469 9.87711 43.0469 7.4215C43.0469 4.96627 45.0444 2.96875 47.5 2.96875Z" fill="#B96FE7"/>
<path d="M47.5 80.1562C43.4006 80.1562 40.0781 83.4794 40.0781 87.5781C40.0781 91.6775 43.4006 95 47.5 95C51.5987 95 54.9219 91.6775 54.9219 87.5781C54.9219 83.4794 51.5987 80.1562 47.5 80.1562ZM47.5 92.0312C45.0444 92.0312 43.0469 90.0337 43.0469 87.5781C43.0469 85.1225 45.0444 83.125 47.5 83.125C49.9556 83.125 51.9531 85.1225 51.9531 87.5781C51.9531 90.0337 49.9556 92.0312 47.5 92.0312Z" fill="#B96FE7"/>
<path d="M87.5781 40.0781C83.4787 40.0781 80.1562 43.4006 80.1562 47.5C80.1562 51.5987 83.4787 54.9219 87.5781 54.9219C91.6768 54.9219 95 51.5987 95 47.5C95 43.4006 91.6768 40.0781 87.5781 40.0781ZM87.5781 51.9531C85.1225 51.9531 83.125 49.9556 83.125 47.5C83.125 45.0444 85.1225 43.0469 87.5781 43.0469C90.0337 43.0469 92.0312 45.0444 92.0312 47.5C92.0312 49.9556 90.0337 51.9531 87.5781 51.9531Z" fill="#B96FE7"/>
<path d="M14.8438 47.5C14.8438 43.4006 11.5206 40.0781 7.42188 40.0781C3.32247 40.0781 0 43.4006 0 47.5C0 51.5987 3.32247 54.9219 7.42188 54.9219C11.5206 54.9219 14.8438 51.5987 14.8438 47.5ZM7.42188 51.9531C4.96626 51.9531 2.96875 49.9556 2.96875 47.5C2.96875 45.0444 4.96626 43.0469 7.42188 43.0469C9.87747 43.0469 11.875 45.0444 11.875 47.5C11.875 49.9556 9.87747 51.9531 7.42188 51.9531Z" fill="#B96FE7"/>
<path d="M75.7031 26.7188C79.8018 26.7188 83.125 23.3956 83.125 19.2965C83.125 15.1979 79.8025 11.8746 75.7031 11.8746C71.6037 11.8746 68.2812 15.1981 68.2812 19.2961C68.2812 23.3959 71.6037 26.7184 75.7031 26.7188ZM75.7031 14.8434C78.1587 14.8434 80.1562 16.8409 80.1562 19.2965C80.1562 21.7521 78.1587 23.75 75.7031 23.75C73.2475 23.7496 71.25 21.7517 71.25 19.2961C71.25 16.8409 73.2475 14.8434 75.7031 14.8434Z" fill="#B96FE7"/>
<path d="M19.2969 68.2812C15.1975 68.2812 11.8757 71.6044 11.875 75.7031C11.8757 79.8025 15.1981 83.125 19.2969 83.125C23.3963 83.125 26.7188 79.8025 26.7188 75.7031C26.7188 71.6044 23.3956 68.2812 19.2969 68.2812ZM19.2969 80.1562C16.842 80.1562 14.8445 78.1587 14.8438 75.7039C14.8445 73.2475 16.842 71.25 19.2969 71.25C21.7525 71.25 23.75 73.2475 23.75 75.7031C23.75 78.1587 21.7525 80.1562 19.2969 80.1562Z" fill="#B96FE7"/>
<path d="M75.7031 68.2812C71.6044 68.2812 68.282 71.6037 68.2812 75.7031C68.282 79.8019 71.6044 83.125 75.7031 83.125C79.8025 83.125 83.125 79.8019 83.125 75.7031C83.125 71.6044 79.8025 68.2812 75.7031 68.2812ZM75.7031 80.1562C73.2483 80.1562 71.2507 78.1587 71.25 75.7039C71.2507 73.2475 73.2483 71.25 75.7031 71.25C78.1587 71.25 80.1562 73.2475 80.1562 75.7031C80.1562 78.1587 78.1587 80.1562 75.7031 80.1562Z" fill="#B96FE7"/>
<path d="M19.2969 11.8746C15.1975 11.875 11.875 15.1979 11.875 19.2969C11.875 23.3959 15.1975 26.7184 19.2969 26.7188C23.3963 26.7188 26.7188 23.3959 26.7188 19.2969C26.7188 15.1971 23.3956 11.875 19.2969 11.8746ZM19.2969 23.75C16.8413 23.7496 14.8438 21.7521 14.8438 19.2969C14.8438 16.8416 16.8413 14.8438 19.2969 14.8434C21.7525 14.8438 23.75 16.8416 23.75 19.2969C23.75 21.7525 21.7525 23.75 19.2969 23.75Z" fill="#B96FE7"/>
</svg>
