<svg width="90" height="95" viewBox="0 0 90 95" fill="none" xmlns="http://www.w3.org/2000/svg">
<path d="M62.2119 49.3526C63.8421 48.908 65.3242 48.3151 66.8062 47.4259L72.1417 50.6864C72.7345 50.9828 73.4755 50.9828 73.9201 50.5382L78.3663 46.092C78.8109 45.6474 78.9591 44.9064 78.5145 44.3136L75.254 38.9782C75.995 37.4961 76.736 36.014 77.1807 34.3838L83.2571 32.9017C83.9981 32.7535 84.4427 32.1607 84.4427 31.4197V25.195C84.4427 24.454 83.9981 23.8612 83.2571 23.7129L77.1807 22.2309C76.736 20.7488 76.1432 19.1186 75.254 17.6365L78.5145 12.3011C78.8109 11.7083 78.8109 10.9672 78.3663 10.5226L73.9201 6.07644C73.4755 5.63183 72.7345 5.48362 72.1417 5.92824L66.8062 9.18877C65.3242 8.44774 63.8421 7.70671 62.2119 7.26209L60.7298 1.18565C60.5816 0.444618 59.9888 0 59.2477 0H52.8749C52.1339 0 51.541 0.444618 51.3928 1.18565L49.9108 7.26209C48.2805 7.70671 46.7984 8.29953 45.3164 9.18877L39.981 5.92824C39.3881 5.63183 38.6471 5.63183 38.2025 6.07644L33.7563 10.5226C33.3117 10.9672 33.1635 11.7083 33.6081 12.3011L36.8686 17.6365C36.1276 19.1186 35.3866 20.6006 34.942 22.2309L28.8655 23.7129C28.1245 23.8612 27.6799 24.454 27.6799 25.195V31.5679C27.6799 32.3089 28.1245 32.9017 28.8655 33.0499L34.942 34.532C35.3866 36.1622 35.9794 37.6443 36.8686 39.1264L33.4599 44.4618C33.1635 45.0546 33.1635 45.7956 33.6081 46.2403L38.0543 50.6864C38.4989 51.1311 39.2399 51.2793 39.8328 50.8346L45.1682 47.5741C46.6502 48.3151 48.1323 49.0562 49.7626 49.5008L51.2446 55.5772C51.3928 56.3183 51.9856 56.7629 52.7267 56.7629H59.0995C59.8406 56.7629 60.4334 56.3183 60.5816 55.5772L62.2119 49.3526ZM59.5441 47.7223L58.2103 53.6506H54.2087L52.8749 47.7223C52.7267 47.1295 52.2821 46.6849 51.8374 46.6849C49.9108 46.2403 48.1323 45.4992 46.502 44.4618C46.0574 44.1654 45.4646 44.1654 45.02 44.4618L39.8328 47.5741L37.0168 44.7582L40.2774 39.571C40.5738 39.1264 40.5738 38.5335 40.2774 37.9407C39.2399 36.3105 38.4989 34.532 38.0543 32.6053C37.9061 32.0125 37.4615 31.5679 37.0168 31.5679L31.0886 30.234V26.2325L37.0168 24.8986C37.6097 24.7504 38.0543 24.3058 38.0543 23.8612C38.4989 21.9345 39.2399 20.156 40.2774 18.5257C40.5738 18.0811 40.5738 17.4883 40.2774 17.0437L36.7204 11.8565L39.5363 9.04056L44.7236 12.1529C45.1682 12.4493 45.761 12.4493 46.3538 12.1529C47.9841 11.1154 49.7626 10.3744 51.6892 9.9298C52.1339 9.78159 52.5785 9.33697 52.7267 8.89236L54.0605 2.96412H58.0621L59.5441 8.89236C59.6924 9.48518 60.137 9.9298 60.5816 9.9298C62.5083 10.3744 64.2867 11.1154 65.917 12.1529C66.3616 12.4493 66.9544 12.4493 67.5473 12.1529L72.7345 9.04056L75.5504 11.8565L72.4381 17.0437C72.1417 17.4883 72.1417 18.0811 72.4381 18.5257C73.4755 20.3042 74.2165 22.0827 74.6612 23.8612C74.8094 24.454 75.254 24.8986 75.6986 24.8986L81.6268 26.2325V30.234L75.6986 31.5679C75.1058 31.7161 74.6612 32.1607 74.6612 32.6053C74.2165 34.532 73.4755 36.3105 72.4381 37.9407C72.1417 38.3853 72.1417 38.9782 72.4381 39.4228L75.5504 44.61L72.7345 47.4259L67.5473 44.4618C67.1027 44.1654 66.5098 44.1654 66.0652 44.4618C64.4349 45.4992 62.6565 46.2403 60.7298 46.6849C59.9888 46.8331 59.5441 47.2777 59.5441 47.7223Z" fill="#B96FE7"/>
<path d="M56.1354 18.674C50.8 18.674 46.502 22.9719 46.502 28.3073C46.502 33.6427 50.8 37.9407 56.1354 37.9407C61.4708 37.9407 65.7688 33.6427 65.7688 28.3073C65.7688 22.9719 61.4708 18.674 56.1354 18.674ZM56.1354 34.9766C52.4302 34.9766 49.4661 32.0125 49.4661 28.3073C49.4661 24.6022 52.4302 21.6381 56.1354 21.6381C59.8405 21.6381 62.8047 24.6022 62.8047 28.3073C62.8047 32.0125 59.8405 34.9766 56.1354 34.9766Z" fill="#B96FE7"/>
<path d="M51.541 67.4338L46.6502 66.2481C46.3538 65.0625 45.761 63.8768 45.1682 62.8394L47.8359 58.5414C48.1323 57.9486 48.1323 57.2076 47.6877 56.7629L43.9825 53.0578C43.5379 52.6132 42.7969 52.465 42.204 52.9096L37.9061 55.5773C36.8686 54.9845 35.683 54.5399 34.4973 54.0952L33.3117 49.2044C33.1635 48.4634 32.5706 48.0188 31.8296 48.0188H26.6424C25.9014 48.0188 25.3086 48.4634 25.1604 49.2044L23.9747 54.0952C22.7891 54.3917 21.6034 54.9845 20.566 55.5773L16.268 52.9096C15.6752 52.6132 14.9341 52.6132 14.4895 53.0578L10.7844 56.7629C10.3398 57.2076 10.1916 57.9486 10.6362 58.5414L13.3039 62.8394C12.7111 63.8768 12.2664 65.0625 11.8218 66.2481L6.93102 67.4338C6.18999 67.582 5.74538 68.1748 5.74538 68.9158V74.103C5.74538 74.8441 6.18999 75.4369 6.93102 75.5851L11.8218 76.7707C12.1182 77.9564 12.7111 79.142 13.3039 80.1795L10.6362 84.4775C10.3398 85.0703 10.3398 85.8113 10.7844 86.2559L14.4895 89.9611C14.9341 90.4057 15.6752 90.5539 16.268 90.1093L20.566 87.4416C21.6034 88.0344 22.7891 88.479 23.9747 88.9236L25.1604 93.8144C25.3086 94.5555 25.9014 95.0001 26.6424 95.0001H31.8296C32.5706 95.0001 33.1635 94.5555 33.3117 93.8144L34.4973 88.9236C35.683 88.6272 36.8686 88.0344 37.9061 87.4416L42.204 90.1093C42.7969 90.4057 43.5379 90.4057 43.9825 89.9611L47.6877 86.2559C48.1323 85.8113 48.2805 85.0703 47.8359 84.4775L45.1682 80.1795C45.761 79.142 46.2056 77.9564 46.6502 76.7707L51.541 75.5851C52.282 75.4369 52.7267 74.8441 52.7267 74.103V68.9158C52.7267 68.1748 52.1338 67.582 51.541 67.4338ZM49.7625 72.9174L45.1682 73.9548C44.5753 74.103 44.1307 74.5477 44.1307 74.9923C43.8343 76.4743 43.0933 77.9564 42.3522 79.2902C42.0558 79.7349 42.0558 80.3277 42.3522 80.7723L44.8717 84.7739L42.9451 86.7005L38.7953 84.4775C38.3507 84.181 37.7579 84.181 37.3132 84.4775C35.9794 85.3667 34.4973 85.9595 33.0153 86.2559C32.4224 86.4041 31.9778 86.8488 31.9778 87.2934L30.644 91.8878H27.8281L26.7906 87.2934C26.6424 86.7005 26.1978 86.2559 25.7532 86.2559C24.2711 85.9595 22.7891 85.2185 21.4552 84.4775C21.0106 84.181 20.4178 84.181 19.9731 84.4775L15.9716 86.997L14.0449 85.0703L16.5644 81.0687C16.8608 80.6241 16.8608 80.0313 16.5644 79.4385C15.6752 78.1046 15.0824 76.6225 14.7859 75.1405C14.6377 74.5477 14.1931 74.103 13.7485 74.103L9.15411 73.0656V70.2497L13.7485 69.2122C14.3413 69.064 14.7859 68.6194 14.7859 68.1748C15.0824 66.6927 15.8234 65.2107 16.5644 63.8768C16.8608 63.4322 16.8608 62.8394 16.5644 62.3948L14.0449 58.3932L15.9716 56.4665L19.9731 58.986C20.4178 59.2824 21.0106 59.2824 21.4552 58.986C22.7891 58.0968 24.2711 57.504 25.7532 57.2076C26.346 57.0594 26.7906 56.6147 26.7906 56.1701L27.8281 51.5757H30.644L31.6814 56.1701C31.8296 56.7629 32.2742 57.2076 32.7189 57.2076C34.2009 57.504 35.683 58.245 37.0168 58.986C37.4614 59.2824 38.0543 59.2824 38.4989 58.986L42.5004 56.4665L44.4271 58.3932L41.9076 62.3948C41.6112 62.8394 41.6112 63.4322 41.9076 63.8768C42.7969 65.2107 43.3897 66.6927 43.6861 68.1748C43.8343 68.7676 44.2789 69.2122 44.7235 69.2122L49.3179 70.2497V72.9174H49.7625Z" fill="#B96FE7"/>
<path d="M29.3101 63.4323C24.864 63.4323 21.1588 67.1374 21.1588 71.5836C21.1588 76.0298 24.864 79.7349 29.3101 79.7349C33.7563 79.7349 37.4615 76.0298 37.4615 71.5836C37.4615 67.1374 33.7563 63.4323 29.3101 63.4323ZM29.3101 76.6226C26.4942 76.6226 24.1229 74.2513 24.1229 71.4354C24.1229 68.6195 26.4942 66.2482 29.3101 66.2482C32.1261 66.2482 34.4973 68.6195 34.4973 71.4354C34.4973 74.3995 32.1261 76.6226 29.3101 76.6226Z" fill="#B96FE7"/>
<path d="M89.4817 54.0951C89.4817 53.9469 89.4817 53.7987 89.3335 53.7987C89.3335 53.6505 89.3335 53.6505 89.1853 53.5023C89.1853 53.3541 89.0371 53.3541 89.0371 53.2059L88.8889 53.0576C88.8889 53.0576 88.7407 53.0576 88.7407 52.9094C88.5925 52.9094 88.5925 52.7612 88.4443 52.7612C88.2961 52.7612 88.2961 52.7612 88.1479 52.7612C87.9997 52.7612 87.9997 52.7612 87.8515 52.7612L80.8858 53.0576C79.9966 53.0576 79.4037 53.7987 79.4037 54.5397C79.4037 55.4289 80.1448 56.0218 80.8858 56.0218L84.4427 55.8736C78.3663 62.2464 70.3632 66.3962 61.619 67.5818C60.878 67.73 60.2852 68.4711 60.4334 69.2121C60.5816 69.9531 61.1744 70.5459 61.9154 70.5459H62.0637C71.4006 69.2121 79.9966 64.7659 86.5176 58.0966L86.6658 61.3572C86.6658 62.0982 87.4069 62.8392 88.1479 62.8392C89.0371 62.8392 89.63 62.0982 89.63 61.3572L89.4817 54.0951Z" fill="#B96FE7"/>
<path d="M22.0481 43.128L20.2696 46.2403C19.825 46.9813 20.1214 47.8705 20.8624 48.3152C21.1588 48.4634 21.307 48.4634 21.6034 48.4634C22.0481 48.4634 22.6409 48.167 22.9373 47.7223L26.4942 41.7941V41.6459C26.4942 41.4977 26.6424 41.4977 26.6424 41.3495C26.6424 41.2013 26.6424 41.2013 26.6424 41.0531V40.9049C26.6424 40.9049 26.6424 40.9049 26.6424 40.7567C26.6424 40.6084 26.6425 40.6084 26.4942 40.4602C26.4942 40.312 26.4942 40.312 26.346 40.1638L26.1978 40.0156C26.0496 39.8674 26.0496 39.8674 25.9014 39.7192L19.9732 36.1623C19.2322 35.7177 18.3429 36.0141 17.8983 36.7551C17.4537 37.4961 17.7501 38.3854 18.4911 38.83L21.1588 40.4602C11.8219 42.9797 4.11515 49.3526 0.113586 58.3932C-0.182826 59.1342 0.113586 60.0234 0.854616 60.3198C1.00282 60.468 1.29923 60.468 1.44744 60.468C2.04026 60.468 2.48488 60.1716 2.78129 59.5788C6.19003 51.2793 13.4521 45.2028 22.0481 43.128Z" fill="#B96FE7"/>
</svg>
