<svg width="77" height="95" viewBox="0 0 77 95" fill="none" xmlns="http://www.w3.org/2000/svg">
<path fill-rule="evenodd" clip-rule="evenodd" d="M58.3048 1.13458e-05C58.1087 0.00039096 57.9146 0.0392547 57.7337 0.114378C57.5527 0.189502 57.3884 0.29941 57.2501 0.437812C57.1119 0.576215 57.0024 0.740393 56.928 0.920952C56.8536 1.10151 56.8156 1.2949 56.8164 1.49006L56.8164 8.175L50.1027 8.175C49.9058 8.17423 49.7108 8.21225 49.5288 8.28686C49.3468 8.36147 49.1815 8.4712 49.0423 8.60971C48.9031 8.74823 48.7929 8.9128 48.7179 9.09393C48.643 9.27505 48.6048 9.46916 48.6055 9.66505C48.6063 9.85997 48.6456 10.0528 48.7213 10.2326C48.7969 10.4124 48.9074 10.5756 49.0464 10.7129C49.1855 10.8502 49.3503 10.9589 49.5315 11.0328C49.7128 11.1066 49.9068 11.1443 50.1027 11.1435L56.8164 11.1435V17.8372C56.8172 18.2298 56.9743 18.6061 57.2532 18.8838C57.5322 19.1614 57.9103 19.3178 58.3048 19.3185C58.5009 19.3193 58.6952 19.2815 58.8766 19.2075C59.0581 19.1334 59.223 19.0245 59.3621 18.8869C59.5011 18.7493 59.6116 18.5857 59.687 18.4056C59.7625 18.2255 59.8016 18.0323 59.8019 17.8372V11.1435H66.5041C66.6999 11.1443 66.894 11.1066 67.0752 11.0328C67.2564 10.9589 67.4212 10.8502 67.5603 10.7129C67.6993 10.5756 67.8098 10.4124 67.8854 10.2326C67.9611 10.0528 68.0004 9.85996 68.0011 9.66505C68.0019 9.46916 67.9637 9.27505 67.8888 9.09393C67.8138 8.9128 67.7035 8.74823 67.5644 8.60972C67.4252 8.4712 67.2598 8.36147 67.0779 8.28686C66.8959 8.21225 66.7009 8.17424 66.504 8.175L59.8019 8.175L59.8019 1.49006C59.8027 1.29417 59.7645 1.10006 59.6895 0.918936C59.6146 0.73781 59.5043 0.573244 59.3651 0.434728C59.226 0.296212 59.0606 0.186485 58.8786 0.111874C58.6966 0.0372638 58.5016 -0.000754558 58.3048 1.13458e-05ZM29.9119 9.10556C29.5184 9.10709 29.1414 9.26334 28.8632 9.54027C28.5849 9.8172 28.4279 10.1924 28.4264 10.584L28.4264 17.2806L21.7097 17.2805C21.5139 17.2798 21.3198 17.3174 21.1386 17.3913C20.9574 17.4652 20.7925 17.5739 20.6535 17.7112C20.5145 17.8485 20.404 18.0117 20.3284 18.1915C20.2527 18.3712 20.2134 18.5641 20.2126 18.759C20.2119 18.9549 20.2501 19.149 20.325 19.3301C20.4 19.5113 20.5102 19.6758 20.6494 19.8143C20.7886 19.9529 20.9539 20.0626 21.1359 20.1372C21.3179 20.2118 21.5129 20.2498 21.7098 20.2491L28.4264 20.249L28.4264 26.9311C28.4249 27.3247 28.5805 27.7029 28.8591 27.9823C29.1377 28.2618 29.5164 28.4196 29.9119 28.4211C30.1077 28.4204 30.3015 28.3812 30.4821 28.3059C30.6628 28.2306 30.8267 28.1207 30.9647 27.9823C31.1026 27.8439 31.2118 27.6799 31.2861 27.4995C31.3603 27.3191 31.3981 27.126 31.3973 26.9311L31.3974 20.2491L38.114 20.249C38.3108 20.2498 38.5059 20.2118 38.6879 20.1372C38.8698 20.0626 39.0352 19.9529 39.1744 19.8144C39.3135 19.6758 39.4238 19.5113 39.4988 19.3301C39.5737 19.149 39.6119 18.9549 39.6112 18.759C39.6104 18.5641 39.5711 18.3713 39.4954 18.1915C39.4198 18.0117 39.3093 17.8485 39.1703 17.7112C39.0312 17.5739 38.8664 17.4652 38.6852 17.3913C38.504 17.3174 38.3099 17.2798 38.114 17.2806L31.3973 17.2805L31.3974 10.584C31.3958 10.1924 31.2388 9.81721 30.9606 9.54028C30.6823 9.26334 30.3054 9.10709 29.9119 9.10556ZM46.7006 23.119C46.5048 23.1198 46.311 23.1589 46.1304 23.2342C45.9498 23.3095 45.7858 23.4195 45.6478 23.5578C45.5099 23.6962 45.4007 23.8602 45.3265 24.0406C45.2522 24.221 45.2144 24.4141 45.2152 24.6091L45.2152 31.294L38.4985 31.294C38.3017 31.2932 38.1067 31.3312 37.9247 31.4058C37.7427 31.4804 37.5773 31.5902 37.4382 31.7287C37.299 31.8672 37.1887 32.0318 37.1138 32.2129C37.0388 32.394 37.0006 32.5881 37.0014 32.784C37.0021 32.9789 37.0415 33.1718 37.1171 33.3516C37.1928 33.5314 37.3033 33.6946 37.4423 33.8319C37.5813 33.9692 37.7461 34.0778 37.9274 34.1517C38.1086 34.2256 38.3027 34.2633 38.4985 34.2625L45.2152 34.2625V40.9561C45.2167 41.3477 45.3737 41.7229 45.6519 41.9999C45.9302 42.2768 46.3071 42.433 46.7006 42.4346C47.0941 42.433 47.4711 42.2768 47.7493 41.9999C48.0276 41.7229 48.1846 41.3478 48.1861 40.9561L48.1861 34.2625L54.9028 34.2625C55.0986 34.2632 55.2927 34.2256 55.4739 34.1517C55.6551 34.0778 55.82 33.9691 55.959 33.8319C56.098 33.6946 56.2085 33.5314 56.2842 33.3516C56.3598 33.1718 56.3991 32.9789 56.3999 32.784C56.4007 32.5881 56.3625 32.394 56.2875 32.2129C56.2126 32.0318 56.1023 31.8672 55.9631 31.7287C55.824 31.5902 55.6586 31.4805 55.4766 31.4058C55.2946 31.3312 55.0996 31.2932 54.9028 31.294L48.1861 31.294L48.1861 24.609C48.1869 24.4141 48.1491 24.221 48.0748 24.0406C48.0006 23.8602 47.8914 23.6962 47.7534 23.5578C47.6155 23.4195 47.4515 23.3095 47.2709 23.2342C47.0903 23.1589 46.8965 23.1198 46.7006 23.119ZM70.1362 41.2199C68.4407 41.2219 66.7399 41.8966 65.4584 43.2028L55.5173 53.3809C54.9528 50.2787 52.5871 47.7396 49.3424 47.7396L29.5711 47.7396C29.3746 47.7396 29.18 47.7783 28.9986 47.8534C28.8171 47.9286 28.6524 48.0386 28.5138 48.1773L17.7543 58.9874L16.1989 57.4249C16.0617 57.2857 15.8984 57.1751 15.7186 57.0993C15.5387 57.0236 15.3458 56.9841 15.1508 56.9833C14.9557 56.9825 14.7625 57.0202 14.582 57.0945C14.4015 57.1687 14.2373 57.2779 14.0989 57.4159L0.438377 71.1395C0.299458 71.2781 0.189206 71.4429 0.11397 71.6245C0.0387345 71.8061 1.04789e-06 72.0009 0 72.1976C-1.04784e-06 72.3943 0.0387304 72.589 0.113964 72.7706C0.189198 72.9522 0.299448 73.1171 0.438365 73.2557L21.6457 94.5599C21.7836 94.6994 21.9477 94.8101 22.1284 94.8856C22.3091 94.9611 22.5029 95 22.6986 95C22.8943 95 23.0881 94.9611 23.2688 94.8856C23.4495 94.8101 23.6136 94.6994 23.7515 94.5599L37.4121 80.8364C37.5496 80.6973 37.6584 80.5324 37.7324 80.351C37.8064 80.1697 37.8441 79.9754 37.8433 79.7794C37.8425 79.5834 37.8033 79.3895 37.7278 79.2087C37.6524 79.028 37.5422 78.8639 37.4036 78.726L35.8511 77.1664L41.4173 71.5685L55.7157 71.5685C55.915 71.5685 56.1123 71.5287 56.2959 71.4516C56.4795 71.3744 56.6457 71.2614 56.7846 71.1192L74.8375 52.6472L74.8291 52.6472C77.3944 50.0327 77.3944 45.8054 74.8291 43.1909C73.5442 41.8814 71.8285 41.2195 70.1362 41.2199ZM70.148 44.1884C71.07 44.1885 71.984 44.5317 72.7024 45.2639C74.1467 46.7359 74.1467 49.1058 72.7024 50.5777C72.6985 50.5777 72.6945 50.5777 72.6906 50.5777L55.0892 68.6003L40.7879 68.6003C40.591 68.6022 40.3965 68.6429 40.2155 68.7201C40.0346 68.7972 39.8707 68.9092 39.7335 69.0496L33.7537 75.0533L19.8514 61.095L30.1973 50.7081L49.3425 50.7081C51.357 50.7081 52.9746 52.3336 52.9746 54.4448C52.9746 55.4737 52.5766 56.3716 51.9406 57.0423C51.9399 57.0674 51.9399 57.0925 51.9406 57.1177C51.9112 57.1245 51.8821 57.1321 51.8531 57.1407C51.1961 57.7877 50.3264 58.1698 49.3424 58.1698L37.6305 58.1698C37.4337 58.169 37.2386 58.2071 37.0566 58.2817C36.8747 58.3563 36.7093 58.466 36.5701 58.6045C36.431 58.743 36.3207 58.9076 36.2458 59.0887C36.1708 59.2699 36.1326 59.464 36.1334 59.6598C36.1341 59.8548 36.1735 60.0476 36.2491 60.2274C36.3248 60.4072 36.4352 60.5704 36.5743 60.7077C36.7133 60.845 36.8781 60.9537 37.0594 61.0276C37.2406 61.1015 37.4347 61.1391 37.6305 61.1383L49.3424 61.1383H51.4774C51.6767 61.1383 51.874 61.0985 52.0576 61.0214C52.2412 60.9442 52.4074 60.8312 52.5464 60.689L53.9561 59.2424L53.9764 59.2222C53.9898 59.1822 54.0015 59.1415 54.0114 59.1005C54.0405 59.1013 54.0697 59.1013 54.0988 59.1005L54.1106 59.0803L67.5964 45.2727C68.3183 44.5369 69.2291 44.1898 70.148 44.1884ZM15.1447 60.5848L31.3509 76.8681L32.6878 78.2103L34.2578 79.7873L22.7002 91.4004L3.58409 72.1979L15.1447 60.5848Z" fill="#B96FE7"/>
</svg>
