<svg width="95" height="94" viewBox="0 0 95 94" fill="none" xmlns="http://www.w3.org/2000/svg">
<path d="M93.5343 62.8101L88.8728 59.0089C87.1697 57.6198 84.6539 57.8756 83.2659 59.5787L82.0528 61.067L73.9042 54.383C74.2075 53.7452 74.4029 53.0458 74.4611 52.3173C74.5853 50.7825 74.1136 49.2521 73.1692 48.1178C72.6803 47.5306 72.0802 47.0568 71.4143 46.7158C72.4698 44.9954 72.6447 42.8379 71.9162 41.3183C70.9276 39.2547 69.3022 38.4916 68.0124 38.1603C69.3604 36.2446 70.6135 33.4805 68.1268 30.493C67.1587 29.3296 65.8646 28.6421 64.5188 28.4597C65.1059 26.7522 64.9861 24.8872 63.7147 23.2942C62.847 22.2074 61.4698 21.494 59.934 21.3375C58.3992 21.1821 56.9422 21.5976 55.8208 22.5042L48.8227 20.1859C46.9059 19.5523 45.1866 19.6398 43.7091 20.4492C42.3427 21.1982 41.2602 22.5322 40.4777 24.4264L38.2252 22.5236C37.1028 21.5749 35.6727 21.1195 34.2016 21.2457C32.7295 21.3699 31.3966 22.0563 30.4479 23.1787C29.5003 24.3012 29.0459 25.7302 29.17 27.2012C29.2045 27.6103 29.2866 28.0075 29.4053 28.3895C28.0886 28.5924 26.9035 29.2486 26.0401 30.2761C24.6295 31.9533 24.3942 34.2339 25.2382 36.115C24.1513 36.4011 23.1811 37.0087 22.445 37.8872C20.7073 39.9605 20.7559 42.961 22.4212 44.9846C21.5373 45.3106 20.7483 45.8588 20.1278 46.6025C18.6502 48.3725 18.4678 50.8192 19.4759 52.7587L11.5302 59.3747C10.1109 57.8702 7.75267 57.6813 6.12727 59.0078L1.46475 62.809C-0.237279 64.197 -0.494149 66.7117 0.894891 68.4148L20.5033 92.4635C21.1736 93.2859 22.1277 93.7996 23.1886 93.9065C23.3268 93.9205 23.4649 93.928 23.602 93.928C24.5161 93.928 25.3947 93.6172 26.1092 93.0344L30.7717 89.2332C32.4737 87.8452 32.7316 85.3294 31.3426 83.6273L28.8764 80.6021L42.2402 69.8999C42.9266 69.9744 43.599 70.0553 44.2573 70.1352C46.4202 70.3964 48.5313 70.6468 50.5992 70.5723L64.8048 82.2254L63.6618 83.6273C62.2739 85.3294 62.5296 87.8452 64.2317 89.2332L68.8942 93.0344C69.6097 93.6183 70.4883 93.9291 71.4024 93.9291C71.5395 93.9291 71.6777 93.9227 71.8158 93.9075C72.8767 93.7996 73.8308 93.2869 74.5011 92.4645L94.1095 68.4148C95.4932 66.7128 95.2363 64.1981 93.5343 62.8101ZM45.0905 22.9758C45.8493 22.5603 46.7732 22.542 47.9161 22.9208L53.2089 24.6746L46.9437 29.8908L42.8176 26.4058C43.3734 24.6692 44.1505 23.4906 45.0905 22.9758ZM32.6453 25.0373C33.1666 24.4199 33.9124 24.1015 34.6636 24.1015C35.2658 24.1015 35.8713 24.3055 36.3645 24.7243L45.5989 32.5243C46.1342 32.9765 46.4612 33.6143 46.5206 34.3191C46.581 35.025 46.3641 35.7082 45.9119 36.2446C45.4597 36.7799 44.8229 37.1069 44.117 37.1663C43.4112 37.2235 42.728 37.0098 42.1927 36.5565L32.9583 28.7565C32.4241 28.3043 32.0949 27.6675 32.0355 26.9616C31.9762 26.2558 32.1942 25.5726 32.6453 25.0373ZM28.2407 32.1314C28.6919 31.5961 29.3265 31.2691 30.028 31.2097C30.7253 31.1525 31.4106 31.3683 31.9438 31.8195L39.5624 38.2844C40.6741 39.2277 40.8155 40.9049 39.8754 42.0209C39.4265 42.5562 38.7908 42.8832 38.0892 42.9426C37.3812 43.0041 36.7067 42.785 36.1735 42.3328L35.8022 42.0177L30.2018 37.2397C30.0896 37.1436 29.9708 37.0562 29.8532 36.9698L28.5537 35.8679C27.4432 34.9235 27.3018 33.2474 28.2407 32.1314ZM24.65 39.7382C25.0979 39.2029 25.7303 38.8759 26.4286 38.8176C26.5031 38.8111 26.5776 38.8089 26.651 38.8089C27.1884 38.8089 27.7 38.9816 28.1382 39.2903L33.9674 44.2367L34.4132 44.6166C35.5259 45.5653 35.6662 47.25 34.7272 48.3714C34.2793 48.9067 33.6469 49.2338 32.9486 49.292C32.2632 49.3503 31.5984 49.1377 31.0717 48.7006L27.8781 45.9603C27.7993 45.8923 27.7151 45.8329 27.632 45.7693L24.9651 43.493C23.8513 42.5433 23.7099 40.8596 24.65 39.7382ZM22.336 48.4491C22.7828 47.9138 23.4109 47.5878 24.1071 47.5296C24.7503 47.4756 25.3698 47.6688 25.8782 48.0552L29.1743 50.8678C29.1948 50.8851 29.2164 50.9002 29.2369 50.9164L30.8688 52.3162C31.9805 53.2703 32.1208 54.9626 31.1807 56.0872C30.7339 56.6225 30.1058 56.9485 29.4107 57.0068C28.7178 57.0629 28.0422 56.846 27.5133 56.3927L22.649 52.2191C21.5362 51.2661 21.3959 49.5737 22.336 48.4491ZM28.9488 87.0033L24.2862 90.8046C24.0596 90.9892 23.7682 91.0755 23.4768 91.0442C23.1811 91.014 22.9156 90.8726 22.731 90.6459L3.12362 66.5973C2.73831 66.1246 2.80954 65.4263 3.28227 65.041L7.94478 61.2397C8.14877 61.0724 8.397 60.9915 8.642 60.9915C8.96255 60.9915 9.28202 61.1307 9.50003 61.3984L10.2469 62.3147C10.2469 62.3147 10.2469 62.3158 10.248 62.3158C10.248 62.3158 10.248 62.3158 10.2491 62.3169L25.7141 81.2853C25.7152 81.2864 25.7152 81.2875 25.7163 81.2885C25.7174 81.2896 25.7185 81.2907 25.7195 81.2918L29.1085 85.4481C29.4927 85.9197 29.4215 86.618 28.9488 87.0033ZM44.5995 67.2783C43.7371 67.1747 42.8532 67.0679 41.9423 66.9761C41.5678 66.9362 41.1922 67.0495 40.8986 67.2848L27.0535 78.3723L13.3704 61.5894L21.3776 54.9227L25.6397 58.5793C26.6391 59.4373 27.8846 59.8971 29.1873 59.8971C29.3405 59.8971 29.4949 59.8906 29.6492 59.8777C31.1181 59.7557 32.4467 59.0661 33.3922 57.935C34.8168 56.2286 35.0359 53.8941 34.1477 51.9913C35.2324 51.7042 36.2005 51.0977 36.9355 50.2202C37.9953 48.9542 38.3871 47.3439 38.1572 45.82C38.2155 45.8167 38.2738 45.8178 38.3321 45.8124C39.8031 45.6883 41.135 45.0008 42.0804 43.8751C43.0216 42.757 43.4371 41.3679 43.3626 40.0102C43.5375 40.0264 43.7091 40.0555 43.8861 40.0555C44.0436 40.0555 44.2023 40.049 44.361 40.0361C45.8331 39.912 47.166 39.2255 48.1136 38.1031C49.0612 36.9806 49.5167 35.5517 49.3926 34.0795C49.3321 33.3672 49.1379 32.6894 48.8292 32.0699L57.6059 24.762C58.1272 24.3293 58.8709 24.1263 59.6426 24.2051C60.4013 24.2828 61.0823 24.6142 61.4655 25.0934C62.5707 26.477 61.704 28.4618 60.2772 29.7062C59.6836 30.2243 59.6166 31.1244 60.1282 31.7245C60.6387 32.3246 61.5378 32.4012 62.1443 31.8972C63.27 30.9593 64.9278 31.1514 65.9143 32.3386C67.353 34.0666 66.6439 35.3326 64.8037 37.6185L64.6796 37.7728C64.0471 38.5607 64.1777 39.2504 64.3115 39.5903C64.6828 40.5336 65.6369 40.6729 66.3341 40.7743C67.585 40.9556 68.674 41.2157 69.3205 42.5659C69.7037 43.3646 69.4295 45.4314 67.8548 46.2798C67.2569 46.6014 66.9666 47.2964 67.1555 47.9483C67.3443 48.6002 67.9574 49.0341 68.6395 48.9834C69.5212 48.9186 70.3944 49.2866 70.9578 49.9634C71.4251 50.5235 71.6561 51.2984 71.5924 52.0885C71.5298 52.8731 71.1801 53.5833 70.634 54.0387L57.158 65.2536C53.4442 68.3468 49.5404 67.8752 44.5995 67.2783ZM54.4048 69.9744C55.9611 69.5038 57.4926 68.7203 59.0004 67.465L72.0586 56.5934L80.2321 63.2979L66.6201 79.9945L54.4048 69.9744ZM91.8732 66.5973L72.2659 90.647C72.0813 90.8737 71.8169 91.0151 71.5201 91.0453C71.2265 91.0766 70.9362 90.9902 70.7095 90.8057L66.047 87.0044C65.5743 86.6191 65.5042 85.9208 65.8895 85.4481L85.4958 61.3995C85.8832 60.9257 86.5804 60.8555 87.0532 61.2408L91.7146 65.0421C92.1873 65.4263 92.2586 66.1246 91.8732 66.5973ZM45.029 8.60514V1.43977C45.029 0.644333 45.6734 0 46.4688 0C47.2642 0 47.9086 0.644333 47.9086 1.43977V8.60514C47.9086 9.40058 47.2642 10.0449 46.4688 10.0449C45.6734 10.0449 45.029 9.3995 45.029 8.60514ZM22.1417 9.31747C21.7445 8.62889 21.9809 7.74819 22.6684 7.35101C23.3581 6.95168 24.2366 7.18912 24.6349 7.8777L28.217 14.0836C28.6142 14.7722 28.3778 15.6529 27.6903 16.0501C27.4637 16.1806 27.2154 16.2432 26.9726 16.2432C26.475 16.2432 25.9915 15.9853 25.7239 15.5234L22.1417 9.31747ZM5.73225 25.6179C6.12943 24.9293 7.00796 24.6919 7.69871 25.0912L13.9046 28.6734C14.5932 29.0705 14.8285 29.9512 14.4313 30.6398C14.1636 31.1018 13.6812 31.3597 13.1826 31.3597C12.9386 31.3597 12.6915 31.2971 12.4648 31.1665L6.25894 27.5844C5.57143 27.1861 5.33615 26.3065 5.73225 25.6179ZM80.3227 27.4916C79.9256 26.803 80.1619 25.9234 80.8494 25.5251L87.0553 21.9419C87.745 21.5436 88.6235 21.78 89.0218 22.4686C89.419 23.1571 89.1826 24.0368 88.4951 24.435L82.2892 28.0182C82.0625 28.1488 81.8143 28.2114 81.5715 28.2114C81.0739 28.2114 80.5904 27.9535 80.3227 27.4916ZM65.2063 12.2661L68.7884 6.06019C69.1856 5.3716 70.0641 5.13416 70.7549 5.5335C71.4435 5.93067 71.6787 6.81137 71.2816 7.49995L67.6994 13.7058C67.4328 14.1678 66.9493 14.4257 66.4507 14.4257C66.2068 14.4257 65.9596 14.3631 65.733 14.2325C65.0454 13.8354 64.8091 12.9547 65.2063 12.2661Z" fill="#B96FE7"/>
</svg>
