<svg width="78" height="95" viewBox="0 0 78 95" fill="none" xmlns="http://www.w3.org/2000/svg">
<path fill-rule="evenodd" clip-rule="evenodd" d="M22.2824 73.9896C18.4645 72.4315 14.093 74.2705 12.5349 78.0874C11.7803 79.9367 11.7906 81.9685 12.565 83.8096C13.3394 85.6506 14.7834 87.0801 16.6327 87.8348C17.545 88.207 18.5018 88.3925 19.4576 88.3925C20.4403 88.3925 21.422 88.1966 22.355 87.8037C24.196 87.0293 25.6255 85.5853 26.3802 83.736C27.9383 79.9201 26.0993 75.5466 22.2824 73.9896ZM23.8881 82.7201C23.4051 83.9039 22.4908 84.8275 21.3121 85.3231C20.1335 85.8186 18.8335 85.8248 17.6497 85.3427C16.4659 84.8597 15.5422 83.9454 15.0467 82.7667C14.5512 81.5881 14.545 80.2881 15.027 79.1043C15.7827 77.2518 17.575 76.1271 19.4628 76.1271C20.064 76.1271 20.6746 76.2411 21.2644 76.4816C23.7078 77.4789 24.8843 80.2767 23.8881 82.7201ZM73.379 0H4.20458C1.88667 0 0 1.88563 0 4.20458V43.3094C0 45.6273 1.88563 47.514 4.20458 47.514H25.8629L30.8989 61.1695L27.5101 69.4616C26.659 68.8759 25.6006 68.2052 24.7807 67.8703C21.2966 66.4491 17.4683 66.4688 13.9987 67.9273C10.5301 69.3859 7.83693 72.107 6.41571 75.5912C4.99449 79.0753 5.01419 82.9036 6.47273 86.3732C7.93127 89.8417 10.6524 92.5349 14.1365 93.9561C15.8739 94.6652 17.6715 95 19.441 95C24.9984 95 30.2759 91.69 32.5015 86.2342C32.5088 86.2177 32.515 86.2 32.5212 86.1835L38.7431 68.9577L45.1204 86.0445C45.1266 86.0622 45.1339 86.0788 45.1411 86.0953C47.4041 91.4786 52.6422 94.7232 58.1457 94.7232C59.9629 94.7232 61.8091 94.3697 63.5859 93.6223C70.7459 90.6119 74.1223 82.3375 71.1119 75.1765C69.6533 71.7079 66.9322 69.0148 63.4481 67.5936C59.9639 66.1723 56.1346 66.192 52.6671 67.6506C51.8502 67.9937 50.7991 68.6758 49.9542 69.2708L46.5064 61.0825L51.3475 47.514H73.379C75.6969 47.514 77.5836 45.6284 77.5836 43.3094V4.20354C77.5836 1.88563 75.6969 0 73.379 0ZM29.998 85.2412C27.6159 91.0421 20.9628 93.8328 15.1535 91.462C9.3359 89.0881 6.53492 82.4246 8.90777 76.6071C10.0574 73.7895 12.2364 71.5877 15.0415 70.408C17.8477 69.2283 20.9441 69.2117 23.7627 70.3624C24.7226 70.7542 26.489 72.0117 27.2883 72.6233C27.8595 73.0597 28.6763 72.9716 29.1387 72.4211C29.2289 72.3144 29.3014 72.1941 29.3543 72.0645L32.4642 64.4546L36.6387 66.8596L29.998 85.2412ZM48.3506 72.2408C48.8181 72.7912 49.6381 72.8721 50.2072 72.4284C51.0002 71.8095 52.7531 70.5324 53.7089 70.1312C56.5151 68.9515 59.6115 68.935 62.4301 70.0846C65.2477 71.2342 67.4494 73.4132 68.6291 76.2183C71.0642 82.01 68.3327 88.7035 62.541 91.1386C56.7576 93.5705 50.0745 90.8504 47.6311 85.0753L40.6733 66.4315C40.5634 66.1381 40.355 65.8914 40.0845 65.7359L34.2026 62.3472L21.0747 26.7482C19.5281 22.554 21.0447 18.0187 24.5371 15.8377L48.136 71.8914C48.1899 72.0189 48.2624 72.1361 48.3506 72.2408ZM36.3101 36.8647C37.1228 37.0171 37.95 37.099 38.7918 37.099C46.1488 37.099 52.1343 31.1135 52.1343 23.7565C52.1343 16.3995 46.1488 10.415 38.7918 10.415C34.2887 10.415 30.1235 12.7215 27.6822 16.3726L26.4538 13.4544C26.1656 12.7692 25.3767 12.4479 24.6915 12.7361C19.0336 15.1151 16.3352 21.6791 18.5484 27.6812L22.7344 39.0312H15.2457C15.0612 35.3864 12.1286 32.4538 8.48379 32.2693V15.2447C12.1286 15.0602 15.0612 12.1276 15.2457 8.48275H62.3378C62.5223 12.1276 65.455 15.0602 69.0998 15.2447V32.2672C65.455 32.4517 62.5223 35.3844 62.3378 39.0292H37.2213L36.3101 36.8647ZM29.0132 19.5332C30.6864 15.6687 34.5499 13.1061 38.7918 13.1061C44.6643 13.1061 49.4411 17.884 49.4411 23.7554C49.4411 29.628 44.6633 34.4048 38.7918 34.4048C37.4732 34.4048 36.1929 34.1684 34.979 33.7019L29.0132 19.5332ZM44.9587 57.4055L40.7935 47.513H48.4884L44.9587 57.4055ZM74.8914 43.3084C74.8914 44.1418 74.2135 44.8198 73.38 44.8198H39.6594L38.3554 41.7213H63.6751C64.4183 41.7213 65.0217 41.119 65.0217 40.3747V39.3941C65.0217 36.9435 67.0151 34.95 69.4657 34.95H70.4464C71.1896 34.95 71.7929 34.3477 71.7929 33.6034V13.9074C71.7929 13.1642 71.1907 12.5609 70.4464 12.5609H69.4657C67.0151 12.5609 65.0217 10.5674 65.0217 8.11579V7.13617C65.0217 6.39291 64.4194 5.78959 63.6751 5.78959H13.9085C13.1652 5.78959 12.5619 6.39187 12.5619 7.13617V8.11682C12.5619 10.5674 10.5685 12.5619 8.11786 12.5619H7.13721C6.39394 12.5619 5.79062 13.1642 5.79062 13.9085V33.6045C5.79062 34.3477 6.39291 34.9511 7.13721 34.9511H8.11786C10.5685 34.9511 12.5619 36.9445 12.5619 39.3951V40.3758C12.5619 41.119 13.1642 41.7223 13.9085 41.7223H23.7264L24.8688 44.8208H4.20458C3.37112 44.8208 2.69317 44.1429 2.69317 43.3094V4.20354C2.69317 3.37009 3.37112 2.69213 4.20458 2.69213H73.379C74.2124 2.69213 74.8904 3.37009 74.8904 4.20354L74.8914 43.3084ZM55.3012 87.558C56.2134 87.9302 57.1702 88.1157 58.126 88.1157C59.1087 88.1157 60.0904 87.9198 61.0234 87.5269C64.8237 85.9295 66.616 81.5373 65.0186 77.737C64.2442 75.8959 62.8002 74.4664 60.9508 73.7117C59.1015 72.9571 57.0697 72.9685 55.2286 73.7418C53.3876 74.5162 51.958 75.9602 51.2034 77.8095C50.4487 79.6589 50.4591 81.6907 51.2334 83.5318C52.0068 85.3738 53.4518 86.8034 55.3012 87.558ZM53.6954 78.8275C54.1785 77.6437 55.0928 76.72 56.2715 76.2245C57.4491 75.729 58.75 75.7218 59.9339 76.2048C61.1177 76.6879 62.0413 77.6022 62.5369 78.7809C63.559 81.2128 62.4125 84.0231 59.9805 85.0452C58.8029 85.5407 57.5019 85.548 56.3181 85.0649C55.1353 84.5819 54.2106 83.6675 53.7151 82.4889C53.2196 81.3113 53.2134 80.0114 53.6954 78.8275ZM38.826 31.8235C38.0972 31.8235 37.4981 31.242 37.4804 30.5101L37.4711 30.139C36.6024 29.8747 35.995 29.3647 35.4445 28.8453C34.9034 28.3353 34.8785 27.4832 35.3896 26.9421C35.8996 26.4009 36.7517 26.376 37.2928 26.8871C37.9417 27.4998 38.2082 27.6324 38.7928 27.6324C39.6335 27.6324 40.3436 27.0644 40.3436 26.3916C40.3436 25.7188 39.6335 25.1508 38.7928 25.1508C36.4531 25.1508 34.5499 23.3864 34.5499 21.2178C34.5499 19.4939 35.7534 18.0249 37.4234 17.4952L37.4131 17.0681C37.3954 16.3249 37.9832 15.7081 38.7265 15.6905C39.4708 15.6801 40.0865 16.2606 40.1042 17.0039L40.1156 17.4786C40.7168 17.6611 41.2704 17.9679 41.7379 18.3847C42.2925 18.8802 42.3412 19.7302 41.8457 20.2858C41.3502 20.8404 40.4991 20.8892 39.9445 20.3936C39.6439 20.1252 39.2355 19.978 38.7928 19.978C37.9521 19.978 37.242 20.546 37.242 21.2188C37.242 21.8916 37.9521 22.4597 38.7928 22.4597C41.1325 22.4597 43.0358 24.224 43.0358 26.3926C43.0358 28.1166 41.8333 29.5844 40.1653 30.1141L40.1736 30.4459C40.1912 31.1891 39.6035 31.8059 38.8602 31.8246C38.8478 31.8225 38.8364 31.8235 38.826 31.8235ZM36.3982 59.3357C36.5381 58.2276 37.5499 57.4429 38.6581 57.5828C39.7662 57.7227 40.5509 58.7345 40.411 59.8427C40.2711 60.9508 39.2593 61.7355 38.1511 61.5956C37.043 61.4557 36.2583 60.4439 36.3982 59.3357Z" fill="#B96FE7"/>
</svg>
