<svg width="95" height="95" viewBox="0 0 95 95" fill="none" xmlns="http://www.w3.org/2000/svg">
<path d="M88.18 40.68C84.93 40.68 82.21 42.97 81.53 46.02H67.06C66.62 41.79 64.83 37.97 62.13 34.96L72.65 24.44C73.65 25.02 74.81 25.36 76.05 25.36C79.81 25.36 82.87 22.3 82.87 18.54C82.87 14.78 79.81 11.72 76.05 11.72C72.29 11.72 69.23 14.78 69.23 18.54C69.23 19.99 69.69 21.33 70.46 22.43L60.01 32.89C56.97 30.37 53.15 28.77 48.98 28.46V13.47C52.03 12.79 54.32 10.07 54.32 6.82C54.32 3.06 51.26 0 47.5 0C43.74 0 40.68 3.06 40.68 6.82C40.68 10.07 42.97 12.79 46.02 13.47V28.45C41.85 28.76 38.03 30.36 34.99 32.88L24.48 22.38C25.13 21.33 25.52 20.1 25.52 18.78C25.52 15.02 22.46 11.96 18.7 11.96C14.94 11.96 11.88 15.02 11.88 18.78C11.88 22.54 14.94 25.6 18.7 25.6C20.06 25.6 21.33 25.19 22.4 24.5L32.86 34.96C30.17 37.97 28.37 41.79 27.93 46.02H13.47C12.79 42.97 10.07 40.68 6.82 40.68C3.06 40.68 0 43.74 0 47.5C0 51.26 3.06 54.32 6.82 54.32C10.07 54.32 12.79 52.03 13.47 48.98H27.87C28.08 53.36 29.7 57.38 32.33 60.56L22.42 70.47C21.33 69.73 20.02 69.3 18.6 69.3C14.84 69.3 11.78 72.36 11.78 76.12C11.78 79.88 14.84 82.94 18.6 82.94C22.36 82.94 25.42 79.88 25.42 76.12C25.42 74.85 25.06 73.66 24.45 72.64L34.38 62.71C34.51 62.82 34.64 62.92 34.77 63.03C34.99 63.22 35.23 63.4 35.46 63.58C35.73 63.79 36 64 36.29 64.2C36.59 64.41 36.89 64.59 37.2 64.78C37.44 64.93 37.67 65.08 37.91 65.21C38.31 65.43 38.72 65.63 39.13 65.83C39.3 65.91 39.47 66 39.64 66.08C40.15 66.3 40.68 66.5 41.22 66.68C41.31 66.71 41.39 66.75 41.48 66.78C42.09 66.97 42.7 67.14 43.33 67.28C43.36 67.29 43.39 67.3 43.42 67.3C44.05 67.43 44.7 67.54 45.35 67.61C45.38 67.61 45.4 67.62 45.43 67.62C45.62 67.64 45.81 67.64 46 67.65V81.53C42.95 82.21 40.66 84.93 40.66 88.18C40.66 91.94 43.72 95 47.48 95C51.24 95 54.3 91.94 54.3 88.18C54.3 84.93 52.01 82.21 48.96 81.53V67.65C49.15 67.64 49.34 67.64 49.53 67.62C49.56 67.62 49.58 67.61 49.61 67.61C50.26 67.54 50.91 67.44 51.54 67.3C51.57 67.29 51.6 67.28 51.63 67.28C52.26 67.14 52.88 66.98 53.48 66.79C53.57 66.76 53.65 66.72 53.74 66.69C54.28 66.51 54.81 66.31 55.32 66.09C55.49 66.01 55.66 65.92 55.83 65.84C56.24 65.64 56.66 65.45 57.05 65.22C57.29 65.08 57.53 64.93 57.77 64.79C58.08 64.6 58.38 64.41 58.68 64.21C58.96 64.01 59.23 63.8 59.51 63.59C59.74 63.41 59.98 63.23 60.2 63.04C60.33 62.93 60.47 62.83 60.59 62.72L70.34 72.47C69.34 73.66 68.73 75.19 68.73 76.86C68.73 80.62 71.79 83.68 75.55 83.68C79.31 83.68 82.37 80.62 82.37 76.86C82.37 73.1 79.31 70.04 75.55 70.04C74.54 70.04 73.59 70.27 72.72 70.66L62.67 60.57C65.3 57.39 66.92 53.37 67.13 48.99H81.53C82.21 52.04 84.93 54.33 88.18 54.33C91.94 54.33 95 51.27 95 47.51C95 43.75 91.94 40.68 88.18 40.68ZM6.82 51.35C4.7 51.35 2.97 49.62 2.97 47.5C2.97 45.38 4.7 43.65 6.82 43.65C8.94 43.65 10.67 45.38 10.67 47.5C10.67 49.63 8.94 51.35 6.82 51.35ZM76.06 14.69C78.18 14.69 79.91 16.42 79.91 18.54C79.91 20.66 78.18 22.39 76.06 22.39C73.94 22.39 72.21 20.66 72.21 18.54C72.21 16.42 73.93 14.69 76.06 14.69ZM43.65 6.82C43.65 4.7 45.38 2.97 47.5 2.97C49.62 2.97 51.35 4.7 51.35 6.82C51.35 8.94 49.62 10.67 47.5 10.67C45.38 10.67 43.65 8.95 43.65 6.82ZM18.7 22.63C16.58 22.63 14.85 20.9 14.85 18.78C14.85 16.66 16.58 14.93 18.7 14.93C20.82 14.93 22.55 16.66 22.55 18.78C22.55 20.9 20.82 22.63 18.7 22.63ZM43.97 42.48C43.97 40.53 45.55 38.95 47.5 38.95C49.45 38.95 51.03 40.53 51.03 42.48C51.03 44.43 49.45 46.01 47.5 46.01C45.55 46.01 43.97 44.43 43.97 42.48ZM59.23 59.92C58.9 60.25 58.55 60.56 58.2 60.86C58.17 60.89 58.14 60.92 58.11 60.94C57.82 61.18 57.51 61.4 57.2 61.62C57.06 61.72 56.92 61.83 56.78 61.93C56.56 62.08 56.32 62.21 56.1 62.35C55.86 62.5 55.62 62.65 55.36 62.79C55.21 62.87 55.05 62.94 54.89 63.01C54.55 63.18 54.22 63.35 53.87 63.49C53.78 63.53 53.68 63.56 53.58 63.6C53.17 63.76 52.75 63.92 52.33 64.04C52.26 64.06 52.18 64.08 52.11 64.1C51.66 64.23 51.21 64.35 50.76 64.44C50.62 64.47 50.48 64.48 50.35 64.5C49.95 64.57 49.56 64.64 49.15 64.68C48.6 64.73 48.05 64.76 47.49 64.76C46.93 64.76 46.38 64.73 45.83 64.68C45.43 64.64 45.03 64.57 44.63 64.5C44.49 64.48 44.35 64.46 44.22 64.44C43.76 64.35 43.31 64.23 42.87 64.1C42.8 64.08 42.72 64.07 42.65 64.04C42.23 63.91 41.81 63.76 41.4 63.6C41.3 63.56 41.21 63.53 41.11 63.49C40.76 63.35 40.42 63.18 40.09 63.01C39.94 62.93 39.78 62.87 39.62 62.79C39.37 62.66 39.13 62.5 38.88 62.35C38.65 62.21 38.42 62.08 38.2 61.93C38.06 61.83 37.92 61.72 37.78 61.62C37.47 61.4 37.16 61.18 36.87 60.94C36.84 60.91 36.81 60.88 36.78 60.86C36.42 60.56 36.08 60.25 35.75 59.92C37.56 55.09 42.27 51.79 47.48 51.79C52.71 51.79 57.42 55.1 59.23 59.92ZM18.6 79.98C16.48 79.98 14.75 78.25 14.75 76.13C14.75 74.01 16.48 72.28 18.6 72.28C20.72 72.28 22.45 74.01 22.45 76.13C22.45 78.25 20.73 79.98 18.6 79.98ZM51.35 88.18C51.35 90.3 49.62 92.03 47.5 92.03C45.38 92.03 43.65 90.3 43.65 88.18C43.65 86.06 45.38 84.33 47.5 84.33C49.62 84.33 51.35 86.06 51.35 88.18ZM79.43 76.85C79.43 78.97 77.7 80.7 75.58 80.7C73.46 80.7 71.73 78.97 71.73 76.85C71.73 74.73 73.46 73 75.58 73C77.7 73 79.43 74.73 79.43 76.85ZM61.35 57.38C58.93 52.58 54.1 49.29 48.67 48.87C51.7 48.32 54 45.67 54 42.48C54 38.9 51.08 35.98 47.5 35.98C43.92 35.98 41 38.9 41 42.48C41 45.66 43.3 48.31 46.33 48.87C40.91 49.29 36.08 52.58 33.65 57.38C31.85 54.71 30.8 51.5 30.8 48.05C30.8 38.84 38.29 31.35 47.5 31.35C56.71 31.35 64.2 38.84 64.2 48.05C64.2 51.51 63.15 54.72 61.35 57.38ZM88.18 51.35C86.06 51.35 84.33 49.62 84.33 47.5C84.33 45.38 86.06 43.65 88.18 43.65C90.3 43.65 92.03 45.38 92.03 47.5C92.03 49.62 90.3 51.35 88.18 51.35Z" fill="#B96FE7"/>
</svg>
